<?xml version="1.0" encoding="UTF-8"?>
<svg viewBox="0 0 766.25 768.75" xmlns="http://www.w3.org/2000/svg">
 <g transform="matrix(1.25,0,0,-1.25,0,768.75)">
  <g transform="scale(.24)">
   <path d="m345.25 2484.2c-172.27-0.41-269.09-89.45-269-271v-1876c-0.0859-170.08 86.957-259.18 259-259h1883c172.57-0.1836 259.75 84.484 260 259v1876c-0.25 177.11-87.43 270.59-265 271 0 0-1868.6 0.18-1868 0"/>
   <path d="m345.25 2484.2c-172.27-0.41-269.09-89.45-269-271v-1876c-0.0859-170.08 86.957-259.18 259-259h1883c172.57-0.1836 259.75 84.484 260 259v1876c-0.25 177.11-87.43 270.59-265 271 0 0-1868.6 0.18-1868 0z" fill="none" stroke="#fff" stroke-miterlimit="10" stroke-width="14.2"/>
   <path d="m2010.2 1131.2-750-751-751 751v495l571-571v1122h363v-1118l568 568-1-496" fill="#fff"/>
  </g>
 </g>
</svg>
